<?xml version="1.0" encoding="UTF-8" standalone="no"?>
<!DOCTYPE svg PUBLIC "-//W3C//DTD SVG 1.1//EN"
 "http://www.w3.org/Graphics/SVG/1.1/DTD/svg11.dtd">
<!-- Generated by graphviz version 2.42.4 (0)
 -->
<!-- Title: KeyFunctions Pages: 1 -->
<svg width="1577pt" height="619pt"
 viewBox="0.00 0.00 1577.00 618.50" xmlns="http://www.w3.org/2000/svg" xmlns:xlink="http://www.w3.org/1999/xlink">
<g id="graph0" class="graph" transform="scale(1 1) rotate(0) translate(4 614.5)">
<title>KeyFunctions</title>
<polygon fill="white" stroke="transparent" points="-4,4 -4,-614.5 1573,-614.5 1573,4 -4,4"/>
<g id="clust1" class="cluster">
<title>cluster_boot</title>
<polygon fill="lightgrey" stroke="lightgrey" points="474,-448.5 474,-602.5 747,-602.5 747,-448.5 474,-448.5"/>
<text text-anchor="middle" x="610.5" y="-587.3" font-family="Times,serif" font-size="14.00">Boot &amp; Init</text>
</g>
<g id="clust2" class="cluster">
<title>cluster_vint</title>
<polygon fill="#e6f3ff" stroke="#e6f3ff" points="760,-374.5 760,-525.5 1301,-525.5 1301,-374.5 760,-374.5"/>
<text text-anchor="middle" x="1030.5" y="-510.3" font-family="Times,serif" font-size="14.00">V&#45;INT Handler</text>
</g>
<g id="clust3" class="cluster">
<title>cluster_sh2</title>
<polygon fill="#ffe6e6" stroke="#ffe6e6" points="815,-8 815,-266.5 1389,-266.5 1389,-8 815,-8"/>
<text text-anchor="middle" x="1102" y="-251.3" font-family="Times,serif" font-size="14.00">SH2 Communication</text>
</g>
<g id="clust4" class="cluster">
<title>cluster_vdp</title>
<polygon fill="#e6ffe6" stroke="#e6ffe6" points="575,-274.5 575,-366.5 1093,-366.5 1093,-274.5 575,-274.5"/>
<text text-anchor="middle" x="834" y="-351.3" font-family="Times,serif" font-size="14.00">VDP &amp; Display</text>
</g>
<g id="clust5" class="cluster">
<title>cluster_game</title>
<polygon fill="#fff0e6" stroke="#fff0e6" points="192,-182 192,-525.5 466,-525.5 466,-182 192,-182"/>
<text text-anchor="middle" x="329" y="-510.3" font-family="Times,serif" font-size="14.00">Game Logic</text>
</g>
<g id="clust6" class="cluster">
<title>cluster_objects</title>
<polygon fill="#f0e6ff" stroke="#f0e6ff" points="8,-82 8,-174 807,-174 807,-82 8,-82"/>
<text text-anchor="middle" x="407.5" y="-158.8" font-family="Times,serif" font-size="14.00">Object System</text>
</g>
<g id="clust7" class="cluster">
<title>cluster_sound</title>
<polygon fill="#fffde6" stroke="#fffde6" points="1357,-374.5 1357,-602.5 1513,-602.5 1513,-374.5 1357,-374.5"/>
<text text-anchor="middle" x="1435" y="-587.3" font-family="Times,serif" font-size="14.00">Sound System</text>
</g>
<g id="clust8" class="cluster">
<title>cluster_seq</title>
<polygon fill="#e6fffe" stroke="#e6fffe" points="1397,-182 1397,-359 1561,-359 1561,-182 1397,-182"/>
<text text-anchor="middle" x="1479" y="-343.8" font-family="Times,serif" font-size="14.00">Master Sequencer</text>
</g>
<!-- entry_point -->
<g id="node1" class="node">
<title>entry_point</title>
<polygon fill="#ffd700" stroke="black" points="739.5,-571.5 632.5,-571.5 632.5,-533.5 739.5,-533.5 739.5,-571.5"/>
<text text-anchor="middle" x="686" y="-556.3" font-family="Courier,monospace" font-size="14.00">$000200</text>
<text text-anchor="middle" x="686" y="-541.3" font-family="Courier,monospace" font-size="14.00">entry_point</text>
</g>
<!-- adapter_init -->
<g id="node2" class="node">
<title>adapter_init</title>
<polygon fill="none" stroke="black" points="739,-494.5 623,-494.5 623,-456.5 739,-456.5 739,-494.5"/>
<text text-anchor="middle" x="681" y="-479.3" font-family="Courier,monospace" font-size="14.00">$000838</text>
<text text-anchor="middle" x="681" y="-464.3" font-family="Courier,monospace" font-size="14.00">adapter_init</text>
</g>
<!-- entry_point&#45;&gt;adapter_init -->
<g id="edge1" class="edge">
<title>entry_point&#45;&gt;adapter_init</title>
<path fill="none" stroke="#666666" d="M684.79,-533.34C684.22,-524.84 683.53,-514.51 682.9,-505"/>
<polygon fill="#666666" stroke="#666666" points="686.37,-504.49 682.22,-494.75 679.39,-504.96 686.37,-504.49"/>
</g>
<!-- game_logic_entry -->
<g id="node18" class="node">
<title>game_logic_entry</title>
<polygon fill="none" stroke="black" points="458.5,-494.5 309.5,-494.5 309.5,-456.5 458.5,-456.5 458.5,-494.5"/>
<text text-anchor="middle" x="384" y="-479.3" font-family="Courier,monospace" font-size="14.00">$006200</text>
<text text-anchor="middle" x="384" y="-464.3" font-family="Courier,monospace" font-size="14.00">game_logic_entry</text>
</g>
<!-- entry_point&#45;&gt;game_logic_entry -->
<g id="edge2" class="edge">
<title>entry_point&#45;&gt;game_logic_entry</title>
<path fill="none" stroke="#666666" d="M632.23,-535.27C629.12,-534.6 626.03,-534.01 623,-533.5 589.42,-527.9 502.67,-535.07 470,-525.5 451.39,-520.05 432.48,-509.88 417.14,-500.21"/>
<polygon fill="#666666" stroke="#666666" points="418.85,-497.15 408.56,-494.62 415.02,-503.01 418.85,-497.15"/>
</g>
<!-- warm_boot_init -->
<g id="node3" class="node">
<title>warm_boot_init</title>
<polygon fill="none" stroke="black" points="614,-571.5 482,-571.5 482,-533.5 614,-533.5 614,-571.5"/>
<text text-anchor="middle" x="548" y="-556.3" font-family="Courier,monospace" font-size="14.00">$000D68</text>
<text text-anchor="middle" x="548" y="-541.3" font-family="Courier,monospace" font-size="14.00">warm_boot_init</text>
</g>
<!-- vint_handler -->
<g id="node4" class="node">
<title>vint_handler</title>
<polygon fill="#87ceeb" stroke="black" points="1093,-494.5 977,-494.5 977,-456.5 1093,-456.5 1093,-494.5"/>
<text text-anchor="middle" x="1035" y="-479.3" font-family="Courier,monospace" font-size="14.00">$001684</text>
<text text-anchor="middle" x="1035" y="-464.3" font-family="Courier,monospace" font-size="14.00">vint_handler</text>
</g>
<!-- vint_state_common -->
<g id="node5" class="node">
<title>vint_state_common</title>
<polygon fill="none" stroke="black" points="925.5,-420.5 768.5,-420.5 768.5,-382.5 925.5,-382.5 925.5,-420.5"/>
<text text-anchor="middle" x="847" y="-405.3" font-family="Courier,monospace" font-size="14.00">$0019FE</text>
<text text-anchor="middle" x="847" y="-390.3" font-family="Courier,monospace" font-size="14.00">vint_state_common</text>
</g>
<!-- vint_handler&#45;&gt;vint_state_common -->
<g id="edge3" class="edge">
<title>vint_handler&#45;&gt;vint_state_common</title>
<path fill="none" stroke="#666666" d="M987.56,-456.33C962.08,-446.57 930.5,-434.48 903.72,-424.22"/>
<polygon fill="#666666" stroke="#666666" points="904.69,-420.85 894.1,-420.54 902.19,-427.38 904.69,-420.85"/>
</g>
<!-- vint_state_fb_toggle -->
<g id="node6" class="node">
<title>vint_state_fb_toggle</title>
<polygon fill="none" stroke="black" points="1126,-420.5 944,-420.5 944,-382.5 1126,-382.5 1126,-420.5"/>
<text text-anchor="middle" x="1035" y="-405.3" font-family="Courier,monospace" font-size="14.00">$001C66</text>
<text text-anchor="middle" x="1035" y="-390.3" font-family="Courier,monospace" font-size="14.00">vint_state_fb_toggle</text>
</g>
<!-- vint_handler&#45;&gt;vint_state_fb_toggle -->
<g id="edge4" class="edge">
<title>vint_handler&#45;&gt;vint_state_fb_toggle</title>
<path fill="none" stroke="#666666" d="M1035,-456.33C1035,-448.63 1035,-439.47 1035,-430.92"/>
<polygon fill="#666666" stroke="#666666" points="1038.5,-430.91 1035,-420.91 1031.5,-430.91 1038.5,-430.91"/>
</g>
<!-- poll_controllers -->
<g id="node7" class="node">
<title>poll_controllers</title>
<polygon fill="none" stroke="black" points="1293.5,-420.5 1144.5,-420.5 1144.5,-382.5 1293.5,-382.5 1293.5,-420.5"/>
<text text-anchor="middle" x="1219" y="-405.3" font-family="Courier,monospace" font-size="14.00">$00179E</text>
<text text-anchor="middle" x="1219" y="-390.3" font-family="Courier,monospace" font-size="14.00">poll_controllers</text>
</g>
<!-- vint_handler&#45;&gt;poll_controllers -->
<g id="edge5" class="edge">
<title>vint_handler&#45;&gt;poll_controllers</title>
<path fill="none" stroke="#666666" d="M1081.43,-456.33C1106.37,-446.57 1137.28,-434.48 1163.48,-424.22"/>
<polygon fill="#666666" stroke="#666666" points="1164.87,-427.44 1172.9,-420.54 1162.32,-420.92 1164.87,-427.44"/>
</g>
<!-- VDPSyncSH2 -->
<g id="node14" class="node">
<title>VDPSyncSH2</title>
<polygon fill="none" stroke="black" points="1084.5,-328 985.5,-328 985.5,-290 1084.5,-290 1084.5,-328"/>
<text text-anchor="middle" x="1035" y="-312.8" font-family="Courier,monospace" font-size="14.00">$0028C2</text>
<text text-anchor="middle" x="1035" y="-297.8" font-family="Courier,monospace" font-size="14.00">VDPSyncSH2</text>
</g>
<!-- vint_state_fb_toggle&#45;&gt;VDPSyncSH2 -->
<g id="edge15" class="edge">
<title>vint_state_fb_toggle&#45;&gt;VDPSyncSH2</title>
<path fill="none" stroke="#666666" d="M1035,-382.19C1035,-369.67 1035,-352.84 1035,-338.58"/>
<polygon fill="#666666" stroke="#666666" points="1038.5,-338.29 1035,-328.29 1031.5,-338.29 1038.5,-338.29"/>
</g>
<!-- sh2_send_cmd_wait -->
<g id="node8" class="node">
<title>sh2_send_cmd_wait</title>
<polygon fill="#ff6b6b" stroke="black" points="1311.5,-135.5 1154.5,-135.5 1154.5,-97.5 1311.5,-97.5 1311.5,-135.5"/>
<text text-anchor="middle" x="1233" y="-120.3" font-family="Courier,monospace" font-size="14.00">$00E316</text>
<text text-anchor="middle" x="1233" y="-105.3" font-family="Courier,monospace" font-size="14.00">sh2_send_cmd_wait</text>
</g>
<!-- sh2_wait_response -->
<g id="node9" class="node">
<title>sh2_wait_response</title>
<polygon fill="none" stroke="black" points="1311.5,-54 1154.5,-54 1154.5,-16 1311.5,-16 1311.5,-54"/>
<text text-anchor="middle" x="1233" y="-38.8" font-family="Courier,monospace" font-size="14.00">$00E342</text>
<text text-anchor="middle" x="1233" y="-23.8" font-family="Courier,monospace" font-size="14.00">sh2_wait_response</text>
</g>
<!-- sh2_send_cmd_wait&#45;&gt;sh2_wait_response -->
<g id="edge21" class="edge">
<title>sh2_send_cmd_wait&#45;&gt;sh2_wait_response</title>
<path fill="none" stroke="#666666" d="M1233,-97.46C1233,-87.67 1233,-75.35 1233,-64.31"/>
<polygon fill="#666666" stroke="#666666" points="1236.5,-64.24 1233,-54.24 1229.5,-64.24 1236.5,-64.24"/>
</g>
<!-- sh2_graphics_cmd -->
<g id="node10" class="node">
<title>sh2_graphics_cmd</title>
<polygon fill="none" stroke="black" points="1381.5,-228 1232.5,-228 1232.5,-190 1381.5,-190 1381.5,-228"/>
<text text-anchor="middle" x="1307" y="-212.8" font-family="Courier,monospace" font-size="14.00">$00E22C</text>
<text text-anchor="middle" x="1307" y="-197.8" font-family="Courier,monospace" font-size="14.00">sh2_graphics_cmd</text>
</g>
<!-- sh2_graphics_cmd&#45;&gt;sh2_send_cmd_wait -->
<g id="edge19" class="edge">
<title>sh2_graphics_cmd&#45;&gt;sh2_send_cmd_wait</title>
<path fill="none" stroke="#666666" d="M1292.02,-189.69C1281.19,-176.44 1266.4,-158.35 1254.33,-143.59"/>
<polygon fill="#666666" stroke="#666666" points="1256.99,-141.31 1247.95,-135.79 1251.57,-145.74 1256.99,-141.31"/>
</g>
<!-- sh2_cmd_27 -->
<g id="node11" class="node">
<title>sh2_cmd_27</title>
<polygon fill="none" stroke="black" points="1214.5,-235.5 1115.5,-235.5 1115.5,-182.5 1214.5,-182.5 1214.5,-235.5"/>
<text text-anchor="middle" x="1165" y="-220.3" font-family="Courier,monospace" font-size="14.00">$00E3B4</text>
<text text-anchor="middle" x="1165" y="-205.3" font-family="Courier,monospace" font-size="14.00">sh2_cmd_27</text>
<text text-anchor="middle" x="1165" y="-190.3" font-family="Courier,monospace" font-size="14.00">(21 calls)</text>
</g>
<!-- sh2_cmd_27&#45;&gt;sh2_send_cmd_wait -->
<g id="edge20" class="edge">
<title>sh2_cmd_27&#45;&gt;sh2_send_cmd_wait</title>
<path fill="none" stroke="#666666" d="M1184.3,-182.31C1193.28,-170.37 1203.94,-156.17 1213,-144.12"/>
<polygon fill="#666666" stroke="#666666" points="1216.06,-145.88 1219.26,-135.78 1210.46,-141.67 1216.06,-145.88"/>
</g>
<!-- sh2_frame_sync -->
<g id="node12" class="node">
<title>sh2_frame_sync</title>
<polygon fill="none" stroke="black" points="955,-228 823,-228 823,-190 955,-190 955,-228"/>
<text text-anchor="middle" x="889" y="-212.8" font-family="Courier,monospace" font-size="14.00">$00203A</text>
<text text-anchor="middle" x="889" y="-197.8" font-family="Courier,monospace" font-size="14.00">sh2_frame_sync</text>
</g>
<!-- sh2_comm_sync -->
<g id="node13" class="node">
<title>sh2_comm_sync</title>
<polygon fill="none" stroke="black" points="1097,-228 973,-228 973,-190 1097,-190 1097,-228"/>
<text text-anchor="middle" x="1035" y="-212.8" font-family="Courier,monospace" font-size="14.00">$002890</text>
<text text-anchor="middle" x="1035" y="-197.8" font-family="Courier,monospace" font-size="14.00">sh2_comm_sync</text>
</g>
<!-- VDPSyncSH2&#45;&gt;sh2_comm_sync -->
<g id="edge16" class="edge">
<title>VDPSyncSH2&#45;&gt;sh2_comm_sync</title>
<path fill="none" stroke="#666666" d="M1035,-289.57C1035,-275.1 1035,-254.72 1035,-238.21"/>
<polygon fill="#666666" stroke="#666666" points="1038.5,-238.02 1035,-228.02 1031.5,-238.02 1038.5,-238.02"/>
</g>
<!-- VDPFill -->
<g id="node15" class="node">
<title>VDPFill</title>
<polygon fill="none" stroke="black" points="967,-328 893,-328 893,-290 967,-290 967,-328"/>
<text text-anchor="middle" x="930" y="-312.8" font-family="Courier,monospace" font-size="14.00">$0027F8</text>
<text text-anchor="middle" x="930" y="-297.8" font-family="Courier,monospace" font-size="14.00">VDPFill</text>
</g>
<!-- unpack_tiles_vdp -->
<g id="node16" class="node">
<title>unpack_tiles_vdp</title>
<polygon fill="none" stroke="black" points="874.5,-335.5 725.5,-335.5 725.5,-282.5 874.5,-282.5 874.5,-335.5"/>
<text text-anchor="middle" x="800" y="-320.3" font-family="Courier,monospace" font-size="14.00">$00247C</text>
<text text-anchor="middle" x="800" y="-305.3" font-family="Courier,monospace" font-size="14.00">unpack_tiles_vdp</text>
<text text-anchor="middle" x="800" y="-290.3" font-family="Courier,monospace" font-size="14.00">(24 calls)</text>
</g>
<!-- vdp_reg_write -->
<g id="node17" class="node">
<title>vdp_reg_write</title>
<polygon fill="none" stroke="black" points="707,-328 583,-328 583,-290 707,-290 707,-328"/>
<text text-anchor="middle" x="645" y="-312.8" font-family="Courier,monospace" font-size="14.00">$003126</text>
<text text-anchor="middle" x="645" y="-297.8" font-family="Courier,monospace" font-size="14.00">vdp_reg_write</text>
</g>
<!-- state_machine -->
<g id="node19" class="node">
<title>state_machine</title>
<polygon fill="none" stroke="black" points="449,-420.5 325,-420.5 325,-382.5 449,-382.5 449,-420.5"/>
<text text-anchor="middle" x="387" y="-405.3" font-family="Courier,monospace" font-size="14.00">$00961E</text>
<text text-anchor="middle" x="387" y="-390.3" font-family="Courier,monospace" font-size="14.00">state_machine</text>
</g>
<!-- game_logic_entry&#45;&gt;state_machine -->
<g id="edge6" class="edge">
<title>game_logic_entry&#45;&gt;state_machine</title>
<path fill="none" stroke="#666666" d="M384.76,-456.33C385.08,-448.63 385.46,-439.47 385.82,-430.92"/>
<polygon fill="#666666" stroke="#666666" points="389.31,-431.05 386.23,-420.91 382.32,-430.76 389.31,-431.05"/>
</g>
<!-- game_update -->
<g id="node20" class="node">
<title>game_update</title>
<polygon fill="none" stroke="black" points="446.5,-328 339.5,-328 339.5,-290 446.5,-290 446.5,-328"/>
<text text-anchor="middle" x="393" y="-312.8" font-family="Courier,monospace" font-size="14.00">$009802</text>
<text text-anchor="middle" x="393" y="-297.8" font-family="Courier,monospace" font-size="14.00">game_update</text>
</g>
<!-- state_machine&#45;&gt;game_update -->
<g id="edge7" class="edge">
<title>state_machine&#45;&gt;game_update</title>
<path fill="none" stroke="#666666" d="M388.21,-382.19C389.04,-369.67 390.16,-352.84 391.11,-338.58"/>
<polygon fill="#666666" stroke="#666666" points="394.62,-338.5 391.79,-328.29 387.63,-338.03 394.62,-338.5"/>
</g>
<!-- game_update&#45;&gt;sh2_frame_sync -->
<g id="edge22" class="edge">
<title>game_update&#45;&gt;sh2_frame_sync</title>
<path fill="none" stroke="#666666" d="M446.55,-297.42C534.92,-279.96 711.54,-245.06 812.86,-225.04"/>
<polygon fill="#666666" stroke="#666666" points="813.6,-228.47 822.73,-223.09 812.24,-221.6 813.6,-228.47"/>
</g>
<!-- physics_calc -->
<g id="node21" class="node">
<title>physics_calc</title>
<polygon fill="none" stroke="black" points="316,-228 200,-228 200,-190 316,-190 316,-228"/>
<text text-anchor="middle" x="258" y="-212.8" font-family="Courier,monospace" font-size="14.00">$009B54</text>
<text text-anchor="middle" x="258" y="-197.8" font-family="Courier,monospace" font-size="14.00">physics_calc</text>
</g>
<!-- game_update&#45;&gt;physics_calc -->
<g id="edge8" class="edge">
<title>game_update&#45;&gt;physics_calc</title>
<path fill="none" stroke="#666666" d="M361.21,-289.97C349.57,-283.01 336.45,-274.75 325,-266.5 311.56,-256.82 297.43,-245.15 285.63,-234.94"/>
<polygon fill="#666666" stroke="#666666" points="287.7,-232.1 277.87,-228.15 283.09,-237.37 287.7,-232.1"/>
</g>
<!-- object_update -->
<g id="node22" class="node">
<title>object_update</title>
<polygon fill="none" stroke="black" points="458,-228 334,-228 334,-190 458,-190 458,-228"/>
<text text-anchor="middle" x="396" y="-212.8" font-family="Courier,monospace" font-size="14.00">$00B684</text>
<text text-anchor="middle" x="396" y="-197.8" font-family="Courier,monospace" font-size="14.00">object_update</text>
</g>
<!-- game_update&#45;&gt;object_update -->
<g id="edge9" class="edge">
<title>game_update&#45;&gt;object_update</title>
<path fill="none" stroke="#666666" d="M393.56,-289.57C394.01,-275.1 394.63,-254.72 395.14,-238.21"/>
<polygon fill="#666666" stroke="#666666" points="398.64,-238.12 395.45,-228.02 391.64,-237.91 398.64,-238.12"/>
</g>
<!-- calc_steering -->
<g id="node26" class="node">
<title>calc_steering</title>
<polygon fill="none" stroke="black" points="290,-143 166,-143 166,-90 290,-90 290,-143"/>
<text text-anchor="middle" x="228" y="-127.8" font-family="Courier,monospace" font-size="14.00">$006F98</text>
<text text-anchor="middle" x="228" y="-112.8" font-family="Courier,monospace" font-size="14.00">calc_steering</text>
<text text-anchor="middle" x="228" y="-97.8" font-family="Courier,monospace" font-size="14.00">(19 calls)</text>
</g>
<!-- physics_calc&#45;&gt;calc_steering -->
<g id="edge13" class="edge">
<title>physics_calc&#45;&gt;calc_steering</title>
<path fill="none" stroke="#666666" d="M251.93,-189.69C248.44,-179.17 243.95,-165.61 239.79,-153.08"/>
<polygon fill="#666666" stroke="#666666" points="243.03,-151.72 236.56,-143.33 236.39,-153.92 243.03,-151.72"/>
</g>
<!-- obj_velocity_x -->
<g id="node27" class="node">
<title>obj_velocity_x</title>
<polygon fill="none" stroke="black" points="148,-143 16,-143 16,-90 148,-90 148,-143"/>
<text text-anchor="middle" x="82" y="-127.8" font-family="Courier,monospace" font-size="14.00">$007F50</text>
<text text-anchor="middle" x="82" y="-112.8" font-family="Courier,monospace" font-size="14.00">obj_velocity_x</text>
<text text-anchor="middle" x="82" y="-97.8" font-family="Courier,monospace" font-size="14.00">(18 calls)</text>
</g>
<!-- physics_calc&#45;&gt;obj_velocity_x -->
<g id="edge14" class="edge">
<title>physics_calc&#45;&gt;obj_velocity_x</title>
<path fill="none" stroke="#666666" d="M199.78,-191.95C185.42,-187.03 170.34,-181.03 157,-174 144.12,-167.21 131.1,-158.28 119.6,-149.53"/>
<polygon fill="#666666" stroke="#666666" points="121.56,-146.62 111.52,-143.22 117.25,-152.14 121.56,-146.62"/>
</g>
<!-- angle_to_sine -->
<g id="node23" class="node">
<title>angle_to_sine</title>
<polygon fill="#dda0dd" stroke="black" points="799,-143 675,-143 675,-90 799,-90 799,-143"/>
<text text-anchor="middle" x="737" y="-127.8" font-family="Courier,monospace" font-size="14.00">$0070AA</text>
<text text-anchor="middle" x="737" y="-112.8" font-family="Courier,monospace" font-size="14.00">angle_to_sine</text>
<text text-anchor="middle" x="737" y="-97.8" font-family="Courier,monospace" font-size="14.00">(29 calls)</text>
</g>
<!-- object_update&#45;&gt;angle_to_sine -->
<g id="edge10" class="edge">
<title>object_update&#45;&gt;angle_to_sine</title>
<path fill="none" stroke="#666666" d="M458.03,-204.08C525.82,-199.12 629.64,-189.32 666,-174 679.67,-168.24 692.89,-159.08 704.14,-149.79"/>
<polygon fill="#666666" stroke="#666666" points="706.66,-152.23 711.96,-143.05 702.1,-146.93 706.66,-152.23"/>
</g>
<!-- load_object_params -->
<g id="node24" class="node">
<title>load_object_params</title>
<polygon fill="none" stroke="black" points="656.5,-143 491.5,-143 491.5,-90 656.5,-90 656.5,-143"/>
<text text-anchor="middle" x="574" y="-127.8" font-family="Courier,monospace" font-size="14.00">$0080CC</text>
<text text-anchor="middle" x="574" y="-112.8" font-family="Courier,monospace" font-size="14.00">load_object_params</text>
<text text-anchor="middle" x="574" y="-97.8" font-family="Courier,monospace" font-size="14.00">(27 calls)</text>
</g>
<!-- object_update&#45;&gt;load_object_params -->
<g id="edge11" class="edge">
<title>object_update&#45;&gt;load_object_params</title>
<path fill="none" stroke="#666666" d="M446.83,-189.94C458.87,-185.17 471.54,-179.73 483,-174 498.01,-166.49 513.75,-157.25 527.84,-148.43"/>
<polygon fill="#666666" stroke="#666666" points="529.8,-151.33 536.37,-143.02 526.05,-145.42 529.8,-151.33"/>
</g>
<!-- object_frame_timer -->
<g id="node25" class="node">
<title>object_frame_timer</title>
<polygon fill="none" stroke="black" points="473.5,-143 308.5,-143 308.5,-90 473.5,-90 473.5,-143"/>
<text text-anchor="middle" x="391" y="-127.8" font-family="Courier,monospace" font-size="14.00">$008170</text>
<text text-anchor="middle" x="391" y="-112.8" font-family="Courier,monospace" font-size="14.00">object_frame_timer</text>
<text text-anchor="middle" x="391" y="-97.8" font-family="Courier,monospace" font-size="14.00">(22 calls)</text>
</g>
<!-- object_update&#45;&gt;object_frame_timer -->
<g id="edge12" class="edge">
<title>object_update&#45;&gt;object_frame_timer</title>
<path fill="none" stroke="#666666" d="M394.99,-189.69C394.41,-179.28 393.67,-165.87 392.99,-153.45"/>
<polygon fill="#666666" stroke="#666666" points="396.47,-153.12 392.43,-143.33 389.48,-153.51 396.47,-153.12"/>
</g>
<!-- sound_init -->
<g id="node28" class="node">
<title>sound_init</title>
<polygon fill="none" stroke="black" points="1484.5,-571.5 1385.5,-571.5 1385.5,-533.5 1484.5,-533.5 1484.5,-571.5"/>
<text text-anchor="middle" x="1435" y="-556.3" font-family="Courier,monospace" font-size="14.00">$00D1D4</text>
<text text-anchor="middle" x="1435" y="-541.3" font-family="Courier,monospace" font-size="14.00">sound_init</text>
</g>
<!-- fm_write -->
<g id="node29" class="node">
<title>fm_write</title>
<polygon fill="none" stroke="black" points="1476.5,-494.5 1393.5,-494.5 1393.5,-456.5 1476.5,-456.5 1476.5,-494.5"/>
<text text-anchor="middle" x="1435" y="-479.3" font-family="Courier,monospace" font-size="14.00">$0014BE</text>
<text text-anchor="middle" x="1435" y="-464.3" font-family="Courier,monospace" font-size="14.00">fm_write</text>
</g>
<!-- sound_init&#45;&gt;fm_write -->
<g id="edge23" class="edge">
<title>sound_init&#45;&gt;fm_write</title>
<path fill="none" stroke="#666666" d="M1435,-533.34C1435,-524.84 1435,-514.51 1435,-505"/>
<polygon fill="#666666" stroke="#666666" points="1438.5,-504.75 1435,-494.75 1431.5,-504.75 1438.5,-504.75"/>
</g>
<!-- z80_bus_request -->
<g id="node30" class="node">
<title>z80_bus_request</title>
<polygon fill="none" stroke="black" points="1505,-420.5 1365,-420.5 1365,-382.5 1505,-382.5 1505,-420.5"/>
<text text-anchor="middle" x="1435" y="-405.3" font-family="Courier,monospace" font-size="14.00">$030D1C</text>
<text text-anchor="middle" x="1435" y="-390.3" font-family="Courier,monospace" font-size="14.00">z80_bus_request</text>
</g>
<!-- fm_write&#45;&gt;z80_bus_request -->
<g id="edge24" class="edge">
<title>fm_write&#45;&gt;z80_bus_request</title>
<path fill="none" stroke="#666666" d="M1435,-456.33C1435,-448.63 1435,-439.47 1435,-430.92"/>
<polygon fill="#666666" stroke="#666666" points="1438.5,-430.91 1435,-420.91 1431.5,-430.91 1438.5,-430.91"/>
</g>
<!-- master_sequencer -->
<g id="node31" class="node">
<title>master_sequencer</title>
<polygon fill="none" stroke="black" points="1553.5,-328 1404.5,-328 1404.5,-290 1553.5,-290 1553.5,-328"/>
<text text-anchor="middle" x="1479" y="-312.8" font-family="Courier,monospace" font-size="14.00">$00C200</text>
<text text-anchor="middle" x="1479" y="-297.8" font-family="Courier,monospace" font-size="14.00">master_sequencer</text>
</g>
<!-- master_sequencer&#45;&gt;sh2_graphics_cmd -->
<g id="edge18" class="edge">
<title>master_sequencer&#45;&gt;sh2_graphics_cmd</title>
<path fill="none" stroke="#666666" d="M1438.62,-289.86C1424.03,-282.95 1407.57,-274.75 1393,-266.5 1375.43,-256.54 1356.6,-244.36 1341.06,-233.86"/>
<polygon fill="#666666" stroke="#666666" points="1343.02,-230.97 1332.79,-228.23 1339.08,-236.75 1343.02,-230.97"/>
</g>
<!-- scene_transition -->
<g id="node32" class="node">
<title>scene_transition</title>
<polygon fill="none" stroke="black" points="1553.5,-228 1404.5,-228 1404.5,-190 1553.5,-190 1553.5,-228"/>
<text text-anchor="middle" x="1479" y="-212.8" font-family="Courier,monospace" font-size="14.00">$00C870</text>
<text text-anchor="middle" x="1479" y="-197.8" font-family="Courier,monospace" font-size="14.00">scene_transition</text>
</g>
<!-- master_sequencer&#45;&gt;scene_transition -->
<g id="edge17" class="edge">
<title>master_sequencer&#45;&gt;scene_transition</title>
<path fill="none" stroke="#666666" d="M1479,-289.57C1479,-275.1 1479,-254.72 1479,-238.21"/>
<polygon fill="#666666" stroke="#666666" points="1482.5,-238.02 1479,-228.02 1475.5,-238.02 1482.5,-238.02"/>
</g>
</g>
</svg>
